#N canvas 160 234 450 300 10;
#X obj 172 90 + 24;
#X obj 66 10 inlet button number;
#X obj 236 10 inlet on off state;
#X obj 172 123 pack f f;
#X obj 236 63 t b f;
#X floatatom 236 33 5 0 1 0 - - -;
#X text 49 235 24 25 26 27 28 29 30 31;
#X text 166 208 buttons cc;
#X text 209 235 40 41 42 43 44 45 46 47;
#X text 49 255 32 33 34 35 36 37 38 39;
#X text 209 255 48 49 50 51 52 53 54 55;
#X floatatom 66 33 5 0 31 0 - - -;
#X obj 172 169 midiout;
#X text 103 34 0 -> 31;
#X text 274 34 0 -> 1;
#X obj 24 84 loadbang;
#X obj 24 132 f \$1;
#X obj 24 108 t b b;
#X obj 24 156 f \$2;
#X text 22 68 2 args to initialize;
#X msg 172 146 191 \$2 \$1;
#X text 56 132 button num 0-31;
#X text 57 156 button state 0-1;
#X connect 0 0 3 1;
#X connect 1 0 11 0;
#X connect 2 0 5 0;
#X connect 3 0 20 0;
#X connect 5 0 4 0;
#X connect 5 0 3 0;
#X connect 11 0 0 0;
#X connect 15 0 17 0;
#X connect 16 0 11 0;
#X connect 17 0 18 0;
#X connect 17 1 16 0;
#X connect 18 0 5 0;
#X connect 20 0 12 0;
