#N canvas 404 251 759 199 10;
#X msg 171 118 240 0 32 41 3 3 18 0 4 0 2 2 4 247;
#X text 169 98 clear left display;
#X text 399 98 clear right display;
#X msg 401 118 240 0 32 41 3 3 18 0 4 0 2 2 5 247;
#X msg 632 118 191 78 0;
#X text 630 100 turn off all leds;
#X obj 171 28 inlet;
#X obj 401 27 inlet;
#X obj 632 28 inlet;
#X obj 394 165 midiout;
#X obj 34 44 loadbang;
#X obj 34 92 f \$1;
#X text 32 28 1 args to loadbang;
#X text 66 92 1 for loadbang;
#X obj 34 115 t b b b;
#X connect 0 0 9 0;
#X connect 3 0 9 0;
#X connect 4 0 9 0;
#X connect 6 0 0 0;
#X connect 7 0 3 0;
#X connect 8 0 4 0;
#X connect 10 0 11 0;
#X connect 11 0 14 0;
#X connect 14 0 0 0;
#X connect 14 1 3 0;
#X connect 14 2 4 0;
