#N canvas 460 78 481 480 10;
#X obj 266 221 +;
#X obj 121 221 -;
#X obj 189 221 f 0;
#X obj 159 180 t b b f;
#X obj 209 180 t b b f;
#X obj 159 158 - 64;
#X obj 159 122 moses 65;
#X obj 24 34 loadbang;
#X obj 24 82 f \$1;
#X obj 24 106 f \$2;
#X text 56 82 enc num 0-7;
#X text 57 106 min;
#X obj 24 130 f \$3;
#X text 56 130 max;
#X obj 186 11 inlet enc num;
#X obj 186 49 + 56;
#X obj 324 75 ctlin;
#X obj 334 174 route 1;
#X obj 334 148 pack f f f;
#X obj 289 109 f;
#X obj 319 109 f;
#X obj 349 109 f;
#X obj 371 75 t b b b;
#X obj 159 87 route;
#X text 385 175 midi ch;
#X obj 189 258 max 0;
#X obj 189 286 min 127;
#X obj 266 253 > 127;
#X obj 266 299 f 127;
#X obj 266 276 sel 1;
#X obj 121 276 sel 1;
#X obj 121 253 < 0;
#X obj 121 299 f 0;
#X obj 189 359 outlet;
#X obj 276 11 inlet min;
#X obj 341 11 inlet max;
#X obj 276 34 s \$0-min;
#X obj 341 34 s \$0-max;
#X obj 36 224 r \$0-min;
#X obj 316 224 r \$0-max;
#X obj 24 150 f \$4;
#X text 56 150 value;
#X text 22 18 4 args to initialize;
#X obj 24 58 t b b b b;
#X obj 407 11 inlet value;
#X connect 0 0 2 1;
#X connect 1 0 2 1;
#X connect 2 0 1 0;
#X connect 2 0 0 0;
#X connect 2 0 25 0;
#X connect 2 0 27 0;
#X connect 2 0 31 0;
#X connect 3 0 2 0;
#X connect 3 1 1 0;
#X connect 3 2 1 1;
#X connect 4 0 2 0;
#X connect 4 1 0 0;
#X connect 4 2 0 1;
#X connect 5 0 3 0;
#X connect 6 0 4 0;
#X connect 6 1 5 0;
#X connect 7 0 43 0;
#X connect 8 0 15 0;
#X connect 9 0 36 0;
#X connect 12 0 37 0;
#X connect 14 0 15 0;
#X connect 15 0 23 1;
#X connect 16 0 19 1;
#X connect 16 0 22 0;
#X connect 16 1 20 1;
#X connect 16 2 21 1;
#X connect 17 0 23 0;
#X connect 18 0 17 0;
#X connect 19 0 18 2;
#X connect 20 0 18 1;
#X connect 21 0 18 0;
#X connect 22 0 21 0;
#X connect 22 1 19 0;
#X connect 22 2 20 0;
#X connect 23 0 6 0;
#X connect 25 0 26 0;
#X connect 26 0 33 0;
#X connect 27 0 29 0;
#X connect 28 0 0 0;
#X connect 29 0 28 0;
#X connect 30 0 32 0;
#X connect 31 0 30 0;
#X connect 32 0 1 0;
#X connect 34 0 36 0;
#X connect 35 0 37 0;
#X connect 38 0 31 1;
#X connect 38 0 25 1;
#X connect 38 0 32 1;
#X connect 39 0 27 1;
#X connect 39 0 28 1;
#X connect 39 0 26 1;
#X connect 40 0 2 0;
#X connect 43 0 40 0;
#X connect 43 1 12 0;
#X connect 43 2 9 0;
#X connect 43 3 8 0;
#X connect 44 0 2 0;
