#N canvas 517 176 819 545 10;
#X obj 193 296 pack f f;
#X obj 193 259 + 120;
#X obj 193 231 hradio 15 1 0 8 empty empty ring_num 0 -8 0 10 -262144
-1 -1 0;
#X obj 307 316 vradio 15 1 0 5 empty empty modes 0 -8 0 10 -262144
-1 -1 2;
#X text 326 314 00h 0-11 Continuous Band (CW);
#X text 326 330 10h 11-0 Continuous Band (ACW);
#X text 326 346 20h L/R Centred Band;
#X text 326 362 30h Double Centred Band;
#X text 326 378 40h 0-11 Single LED (CW);
#X obj 54 219 sel 0 1 2 3 4;
#X obj 54 242 f 0;
#X obj 64 272 f 16;
#X obj 74 302 f 32;
#X obj 84 332 f 48;
#X obj 104 362 f 64;
#X obj 427 438 midiout;
#X text 55 10 set led rotary display mode on zero sl;
#X obj 306 19 inlet ctrl num;
#X obj 406 19 inlet display mode;
#X text 313 267 rotary ring led display modes:;
#X text 364 227 modes cc;
#X text 313 243 120 121 122 123 124 125 126 127;
#X obj 530 19 inlet encoders levels 0-11;
#X obj 543 296 pack f f;
#X obj 543 259 + 112;
#X text 325 40 0 -> 7;
#X text 559 40 0 -> 11;
#X obj 711 228 vsl 15 128 0 11 0 0 empty empty ring 0 -9 0 10 -262144
-1 -1 0 1;
#X obj 543 231 hradio 15 1 0 8 empty empty ring_num 0 -8 0 10 -262144
-1 -1 0;
#X msg 543 350 191 \$2 \$1;
#X floatatom 530 65 5 0 11 0 - - -;
#X msg 193 320 191 \$2 \$1;
#X text 435 40 0 -> 4;
#X text 53 40 arguments 1-cttrlnum 2-dispmode 3-level;
#X obj 15 91 loadbang;
#X obj 15 139 f \$1;
#X obj 15 163 f \$2;
#X obj 15 187 f \$3;
#X obj 15 115 t b b b;
#X text 13 75 3 args to initialize;
#X text 47 139 ctrl num 0-7;
#X text 48 163 display mode 0-4;
#X text 47 187 level 0-11;
#X obj 533 323 t b;
#X connect 0 0 31 0;
#X connect 1 0 0 1;
#X connect 2 0 1 0;
#X connect 3 0 9 0;
#X connect 9 0 10 0;
#X connect 9 1 11 0;
#X connect 9 2 12 0;
#X connect 9 3 13 0;
#X connect 9 4 14 0;
#X connect 10 0 0 0;
#X connect 11 0 0 0;
#X connect 12 0 0 0;
#X connect 13 0 0 0;
#X connect 14 0 0 0;
#X connect 17 0 2 0;
#X connect 17 0 28 0;
#X connect 18 0 3 0;
#X connect 22 0 30 0;
#X connect 23 0 29 0;
#X connect 23 0 43 0;
#X connect 24 0 23 1;
#X connect 27 0 23 0;
#X connect 28 0 24 0;
#X connect 29 0 15 0;
#X connect 30 0 23 0;
#X connect 31 0 15 0;
#X connect 34 0 38 0;
#X connect 35 0 2 0;
#X connect 35 0 28 0;
#X connect 36 0 3 0;
#X connect 37 0 23 0;
#X connect 38 0 37 0;
#X connect 38 1 36 0;
#X connect 38 2 35 0;
#X connect 43 0 3 0;
