#N canvas 888 216 450 425 10;
#X obj 214 284 midiout;
#X msg 92 242 191 96 \$1;
#X msg 53 213 0;
#X msg 85 214 2;
#X msg 121 214 8;
#X msg 157 214 16;
#X text 70 189 selector;
#X msg 227 214 4;
#X msg 197 214 1;
#X msg 283 213 0;
#X text 300 189 selector;
#X msg 322 242 191 97 \$1;
#X msg 315 214 33;
#X msg 351 214 34;
#X msg 387 214 36;
#X obj 191 92 hradio 15 1 0 6 empty empty empty 0 -8 0 10 -262144 -1
-1 1;
#X obj 191 112 sel 0 1 2 3 4 5;
#X obj 301 92 hradio 15 1 0 4 empty empty empty 0 -8 0 10 -262144 -1
-1 1;
#X obj 301 112 sel 0 1 2 3;
#X obj 51 15 inlet left indicator;
#X obj 221 15 inlet right indicator;
#X obj 20 60 loadbang;
#X obj 20 108 f \$1;
#X obj 20 132 f \$2;
#X text 18 44 2 args to initialize;
#X text 52 108 Left indicator num;
#X text 53 132 Right indicator num;
#X obj 20 84 t b b;
#X connect 1 0 0 0;
#X connect 2 0 1 0;
#X connect 3 0 1 0;
#X connect 4 0 1 0;
#X connect 5 0 1 0;
#X connect 7 0 1 0;
#X connect 8 0 1 0;
#X connect 9 0 11 0;
#X connect 11 0 0 0;
#X connect 12 0 11 0;
#X connect 13 0 11 0;
#X connect 14 0 11 0;
#X connect 15 0 16 0;
#X connect 16 0 2 0;
#X connect 16 1 3 0;
#X connect 16 2 4 0;
#X connect 16 3 5 0;
#X connect 16 4 8 0;
#X connect 16 5 7 0;
#X connect 17 0 18 0;
#X connect 18 0 9 0;
#X connect 18 1 12 0;
#X connect 18 2 13 0;
#X connect 18 3 14 0;
#X connect 19 0 15 0;
#X connect 20 0 17 0;
#X connect 21 0 27 0;
#X connect 22 0 15 0;
#X connect 23 0 17 0;
#X connect 27 0 23 0;
#X connect 27 1 22 0;
