#N canvas 104 357 450 300 10;
#X text 210 96 switch to automap;
#X obj 212 203 midiout;
#X msg 212 120 240 0 32 41 3 3 18 0 4 0 1 1 247;
#X obj 212 51 inlet bang;
#X text 229 148 set transport lock on;
#X msg 231 166 191 79 1;
#X obj 212 74 t b b;
#X obj 34 64 loadbang;
#X obj 34 112 f \$1;
#X text 32 48 1 args to loadbang;
#X text 66 112 1 for loadbang;
#X obj 34 135 sel 1;
#X obj 34 162 print;
#X connect 2 0 1 0;
#X connect 3 0 6 0;
#X connect 5 0 1 0;
#X connect 6 0 5 0;
#X connect 6 1 2 0;
#X connect 7 0 8 0;
#X connect 8 0 11 0;
#X connect 11 0 6 0;
#X connect 11 0 12 0;
