#N canvas 219 153 700 488 10;
#X floatatom 162 222 5 0 7 0 char_starts_from_slot(0-7) - -;
#X obj 129 278 *;
#X msg 129 249 9;
#X obj 162 249 t b f;
#X floatatom 214 202 5 1 4 0 draw_on_line(1-4) - -;
#X obj 129 333 pack f f f f f f f f f;
#X msg 104 393 240 0 32 41 3 3 18 0 4 0 2 1 \$1 \$2 4 32 \$3 \$4 \$5
\$6 \$7 \$8 \$9 32 247, f 67;
#X floatatom 211 272 5 0 0 0 - - -;
#X floatatom 241 272 5 0 0 0 - - -;
#X floatatom 271 272 5 0 0 0 - - -;
#X floatatom 301 272 5 0 0 0 - - -;
#X floatatom 331 272 5 0 0 0 - - -;
#X floatatom 361 272 5 0 0 0 - - -;
#X floatatom 391 272 5 0 0 0 - - -;
#X obj 278 232 unpack f f f f f f f;
#X obj 278 209 tof/to_ascii_code 32;
#X obj 319 320 sel 32;
#X obj 359 320 sel 32;
#X obj 319 343 f 32;
#X obj 399 320 sel 32;
#X obj 359 343 f 32;
#X obj 399 343 f 32;
#X obj 439 343 f 32;
#X obj 479 343 f 32;
#X obj 439 320 sel 32;
#X obj 479 320 sel 32;
#X obj 278 175 t b f;
#X floatatom 278 147 7 0 0 0 - - -;
#X obj 328 175 t b a;
#X text 276 127 value or parameter name;
#X obj 329 104 symbol;
#X obj 433 13 inlet value;
#X obj 104 416 midiout;
#X obj 93 13 inlet line-num(1-4);
#X obj 223 13 inlet slot num;
#X text 392 147 max 7 characters;
#X msg 338 147 abcdefg;
#X obj 24 84 loadbang;
#X obj 24 132 f \$1;
#X text 56 132 line num 1-4;
#X obj 24 156 f \$2;
#X text 57 156 slot num 0-7;
#X text 86 180 text;
#X obj 24 108 t b b b;
#X text 201 48 on which slot of the line(0-7);
#X text 89 33 on which line to draw (1-4);
#X obj 24 180 symbol \$3;
#X text 22 68 2 or 3 args to initialize;
#X obj 323 13 inlet string;
#X text 320 33 display a string;
#X text 411 48 display a value, f 91;
#X obj 129 307 f;
#X obj 448 286 t b f;
#X connect 0 0 3 0;
#X connect 1 0 51 1;
#X connect 2 0 1 0;
#X connect 3 0 2 0;
#X connect 3 1 1 1;
#X connect 4 0 5 1;
#X connect 5 0 6 0;
#X connect 6 0 32 0;
#X connect 7 0 5 2;
#X connect 8 0 5 3;
#X connect 8 0 16 0;
#X connect 9 0 5 4;
#X connect 9 0 17 0;
#X connect 10 0 5 5;
#X connect 10 0 19 0;
#X connect 11 0 5 6;
#X connect 11 0 24 0;
#X connect 12 0 5 7;
#X connect 12 0 25 0;
#X connect 13 0 52 0;
#X connect 14 0 7 0;
#X connect 14 1 8 0;
#X connect 14 2 9 0;
#X connect 14 3 10 0;
#X connect 14 4 11 0;
#X connect 14 5 12 0;
#X connect 14 6 13 0;
#X connect 15 0 14 0;
#X connect 16 0 18 0;
#X connect 17 0 20 0;
#X connect 18 0 9 0;
#X connect 19 0 21 0;
#X connect 20 0 10 0;
#X connect 21 0 11 0;
#X connect 22 0 12 0;
#X connect 23 0 13 0;
#X connect 24 0 22 0;
#X connect 25 0 23 0;
#X connect 26 0 5 0;
#X connect 26 1 15 0;
#X connect 27 0 26 0;
#X connect 28 0 5 0;
#X connect 28 1 15 0;
#X connect 30 0 28 0;
#X connect 31 0 27 0;
#X connect 33 0 4 0;
#X connect 34 0 0 0;
#X connect 36 0 28 0;
#X connect 37 0 43 0;
#X connect 38 0 4 0;
#X connect 40 0 0 0;
#X connect 43 0 46 0;
#X connect 43 1 40 0;
#X connect 43 2 38 0;
#X connect 46 0 30 0;
#X connect 48 0 30 0;
#X connect 51 0 5 0;
#X connect 52 0 51 0;
#X connect 52 1 5 8;
